<?xml version="1.0" encoding="utf-8"?>
<!-- Generator: Adobe Illustrator 23.0.0, SVG Export Plug-In . SVG Version: 6.00 Build 0)  -->
<svg version="1.1" id="Calque_1" xmlns="http://www.w3.org/2000/svg" xmlns:xlink="http://www.w3.org/1999/xlink" x="0px" y="0px"
	 viewBox="0 0 355 111" style="enable-background:new 0 0 355 111;" xml:space="preserve">
<style type="text/css">
	.st0{fill:#FBB03B;}
	.st1{fill:#F7931E;}
	.st2{fill:#223A8F;}
	.st3{fill:#4F61A5;}
	.st4{fill:#E4032C;}
	.st5{fill:#FFFFFF;}
	.st6{enable-background:new    ;}
</style>
<g>
	<g>
		<g>
			<path class="st0" d="M42.5,3.1v25.4H3.3l0,0c0-14,11.4-25.4,25.4-25.4L42.5,3.1z"/>
			<path class="st1" d="M42.6,44.2V28.5H18.4l0,0c0,8.7,7,15.7,15.7,15.7H42.6z"/>
			<path class="st2" d="M65.2,28.5v-9.7h14.9l0,0c0,5.3-4.3,9.7-9.7,9.7H65.2z"/>
			<g>
				<path class="st3" d="M90.9,3.3c0,4.3-1.8,8.2-4.6,11.1c-2.8,2.8-6.8,4.6-11.1,4.6h-17c-4.3,0-8.2-1.8-11.1-4.6
					c-2.8-2.8-4.6-6.8-4.6-11.1C42.5,3.3,90.9,3.3,90.9,3.3z"/>
			</g>
			<g>
				<path class="st4" d="M68,28.4v52.9c-7,0-13.3-2.8-17.9-7.4S42.7,63,42.7,56V3c7,0,13.3,2.8,17.9,7.4S68,21.4,68,28.4z"/>
			</g>
			<g>
				<g>
					<path class="st5" d="M58.3,18.7v17c0,4.3-1.8,8.2-4.6,11.1c-2.8,2.8-6.8,4.6-11.1,4.6V3c4.3,0,8.2,1.8,11.1,4.6
						C56.5,10.5,58.3,14.4,58.3,18.7z"/>
				</g>
			</g>
			<circle cx="50.3" cy="15.1" r="3"/>
		</g>
		<path class="st2" d="M126.3,3.3l4.9,4.9v73.1h-12.1V61.8h-14.7v19.5H92.3V8.2l4.9-4.9L126.3,3.3z M119,49.6V15.4h-14.7v34.2H119z"
			/>
		<path class="st2" d="M176.4,3.3v12.1v7.5l-26.9,46.3h14.7h12.1v12.1h-4.8h-29.4h-4.8V69.2V62l26.9-46.5h-14.7h-12.1V3.4h4.8h29.4
			L176.4,3.3z"/>
		<path class="st2" d="M219.4,15.4h-12.3v65.9H195V15.4h-12.3V3.3H195h12.1h12.3V15.4z"/>
		<path class="st2" d="M258.7,3.3l4.9,5v29.1v7.4l-4.9,4.9h-7.2l12.1,31.7h-12.9l-13.8-31.7v31.7h-12.1V49.7V37.4V3.3L258.7,3.3z
			 M251.5,37.3V15.5h-14.6v21.8H251.5z"/>
		<path class="st2" d="M282,15.4v22.1h14.7v12.1H282v19.5h12.4h2.4h7.4v12.1h-4.9H270v-78h29.2h4.9v12.1h-7.4h-2.3L282,15.4z"/>
		<path class="st2" d="M328.4,42.2l20.8,39.1h-14.6l-12.1-23.6v23.6h-12.1v-5.1V49.8V34.3V7.7V3.3h12.1v23.3l12.1-23.3h14.6
			L328.4,42.2z"/>
	</g>
	<g class="st6">
		<path class="st2" d="M50.3,103.7c-1-1-1.5-2.5-1.5-4.4V91h2.5v8.5c0,1.2,0.3,2.1,0.9,2.8c0.6,0.6,1.4,0.9,2.5,0.9
			c1.1,0,1.9-0.3,2.5-0.9c0.6-0.6,0.9-1.5,0.9-2.7V91h2.5v8.4c0,1.9-0.5,3.4-1.5,4.4s-2.5,1.5-4.4,1.5
			C52.8,105.2,51.3,104.7,50.3,103.7z"/>
		<path class="st2" d="M71.6,96c0.6,0.7,0.9,1.7,0.9,3v6H70v-5.9c0-0.8-0.1-1.3-0.4-1.7S68.8,97,68.2,97c-0.7,0-1.3,0.2-1.7,0.7
			c-0.4,0.5-0.7,1.1-0.7,1.8v5.5h-2.5v-9.8h2.4v1.5c0.3-0.5,0.8-1,1.3-1.3c0.6-0.3,1.2-0.4,1.9-0.4C70.2,95,71.1,95.4,71.6,96z"/>
		<path class="st2" d="M88.8,96c0.6,0.7,0.9,1.7,0.9,3v6h-2.5v-5.9c0-0.8-0.1-1.3-0.4-1.7S86,97,85.3,97c-0.7,0-1.3,0.2-1.7,0.7
			c-0.4,0.5-0.7,1.1-0.7,1.8v5.5h-2.5v-9.8h2.4v1.5c0.3-0.5,0.8-1,1.3-1.3c0.6-0.3,1.2-0.4,1.9-0.4C87.3,95,88.2,95.4,88.8,96z"/>
		<path class="st2" d="M94,104.6c-0.8-0.4-1.3-1-1.8-1.8c-0.4-0.8-0.6-1.7-0.6-2.7c0-1,0.2-1.9,0.6-2.7s1-1.4,1.8-1.8
			c0.8-0.4,1.6-0.6,2.6-0.6s1.9,0.2,2.6,0.6c0.8,0.4,1.3,1,1.7,1.8s0.6,1.7,0.6,2.7c0,1-0.2,1.9-0.6,2.7c-0.4,0.8-1,1.4-1.7,1.8
			c-0.8,0.4-1.6,0.6-2.6,0.6S94.7,105,94,104.6z M98.5,102.5c0.4-0.5,0.6-1.3,0.6-2.4c0-1-0.2-1.8-0.6-2.3c-0.4-0.5-1-0.8-1.8-0.8
			c-0.8,0-1.4,0.3-1.8,0.8c-0.4,0.5-0.7,1.3-0.7,2.3c0,1,0.2,1.8,0.6,2.4s1,0.8,1.8,0.8C97.4,103.3,98,103,98.5,102.5z"/>
		<path class="st2" d="M112.6,95.3v9.8h-2.4v-1.5c-0.3,0.5-0.7,0.9-1.2,1.2c-0.5,0.3-1.1,0.4-1.8,0.4c-2.4,0-3.6-1.3-3.6-4v-5.9h2.5
			v5.9c0,0.7,0.1,1.2,0.4,1.5c0.3,0.3,0.7,0.5,1.3,0.5c0.7,0,1.3-0.2,1.7-0.7s0.6-1.1,0.6-1.8v-5.4H112.6z"/>
		<path class="st2" d="M122.1,95.3h2.5l-4.3,9.8h-2.2l-4.2-9.8h2.6l2.8,6.9L122.1,95.3z"/>
		<path class="st2" d="M134.2,100.6h-6.7c0.1,0.9,0.4,1.6,0.8,2c0.5,0.4,1.1,0.7,2,0.7c1.1,0,2.1-0.3,3-1l0.7,1.7
			c-0.5,0.4-1,0.7-1.7,0.9c-0.7,0.2-1.4,0.3-2.1,0.3c-1.6,0-2.9-0.5-3.8-1.4c-0.9-0.9-1.4-2.1-1.4-3.7c0-1,0.2-1.9,0.6-2.7
			s1-1.4,1.7-1.8s1.6-0.6,2.5-0.6c1.3,0,2.4,0.4,3.2,1.3c0.8,0.9,1.2,2.1,1.2,3.6V100.6z M128.3,97.4c-0.4,0.4-0.7,1-0.8,1.8h4.5
			c0-0.8-0.2-1.4-0.6-1.8c-0.4-0.4-0.9-0.6-1.6-0.6C129.2,96.8,128.7,97,128.3,97.4z"/>
		<path class="st2" d="M143.5,96c0.7,0.7,1,1.7,1,3.1v5.9h-2.4v-1.5c-0.2,0.5-0.6,0.9-1.1,1.2s-1,0.4-1.7,0.4
			c-0.7,0-1.2-0.1-1.8-0.4c-0.5-0.3-1-0.6-1.3-1.1s-0.5-1-0.5-1.6c0-0.7,0.2-1.3,0.6-1.7c0.4-0.4,1-0.7,1.8-0.9s2-0.3,3.4-0.3h0.5
			v-0.5c0-0.7-0.1-1.1-0.4-1.4c-0.3-0.3-0.8-0.4-1.4-0.4c-0.5,0-1.1,0.1-1.6,0.3c-0.6,0.2-1.1,0.4-1.7,0.8l-0.7-1.7
			c0.5-0.3,1.2-0.6,2-0.9s1.5-0.3,2.2-0.3C141.8,95,142.8,95.4,143.5,96z M141.5,102.8c0.4-0.4,0.6-1,0.6-1.7v-0.4h-0.4
			c-0.9,0-1.6,0-2.1,0.1c-0.5,0.1-0.8,0.2-1.1,0.4c-0.2,0.2-0.3,0.5-0.3,0.8c0,0.4,0.1,0.8,0.4,1s0.7,0.4,1.1,0.4
			C140.5,103.4,141,103.2,141.5,102.8z"/>
		<path class="st2" d="M156,95.3v9.8h-2.4v-1.5c-0.3,0.5-0.7,0.9-1.2,1.2c-0.5,0.3-1.1,0.4-1.8,0.4c-2.4,0-3.6-1.3-3.6-4v-5.9h2.5
			v5.9c0,0.7,0.1,1.2,0.4,1.5c0.3,0.3,0.7,0.5,1.3,0.5c0.7,0,1.3-0.2,1.7-0.7s0.6-1.1,0.6-1.8v-5.4H156z"/>
		<path class="st2" d="M178.1,96c0.5,0.7,0.8,1.7,0.8,3v6h-2.5v-5.9c0-0.7-0.1-1.3-0.4-1.6s-0.7-0.5-1.2-0.5c-0.7,0-1.2,0.2-1.6,0.7
			c-0.4,0.5-0.6,1.1-0.6,1.9v5.5h-2.5v-5.9c0-0.7-0.1-1.3-0.4-1.6s-0.7-0.5-1.2-0.5c-0.7,0-1.2,0.2-1.5,0.7
			c-0.4,0.5-0.6,1.1-0.6,1.9v5.5H164v-9.8h2.4v1.4c0.3-0.5,0.7-0.9,1.2-1.2c0.5-0.3,1.1-0.4,1.8-0.4c1.5,0,2.5,0.6,2.9,1.8
			c0.3-0.6,0.7-1,1.3-1.4c0.6-0.3,1.2-0.5,1.9-0.5C176.7,95,177.6,95.4,178.1,96z"/>
		<path class="st2" d="M183.3,104.6c-0.8-0.4-1.3-1-1.8-1.8c-0.4-0.8-0.6-1.7-0.6-2.7c0-1,0.2-1.9,0.6-2.7s1-1.4,1.8-1.8
			c0.8-0.4,1.6-0.6,2.6-0.6s1.9,0.2,2.6,0.6c0.8,0.4,1.3,1,1.7,1.8c0.4,0.8,0.6,1.7,0.6,2.7c0,1-0.2,1.9-0.6,2.7
			c-0.4,0.8-1,1.4-1.7,1.8s-1.6,0.6-2.6,0.6S184.1,105,183.3,104.6z M187.8,102.5c0.4-0.5,0.6-1.3,0.6-2.4c0-1-0.2-1.8-0.6-2.3
			s-1-0.8-1.8-0.8s-1.4,0.3-1.8,0.8c-0.4,0.5-0.7,1.3-0.7,2.3c0,1,0.2,1.8,0.6,2.4s1,0.8,1.8,0.8C186.7,103.3,187.4,103,187.8,102.5
			z"/>
		<path class="st2" d="M201.3,96c0.6,0.7,0.9,1.7,0.9,3v6h-2.5v-5.9c0-0.8-0.1-1.3-0.4-1.7c-0.3-0.3-0.7-0.5-1.3-0.5
			c-0.7,0-1.3,0.2-1.7,0.7c-0.4,0.5-0.7,1.1-0.7,1.8v5.5H193v-9.8h2.4v1.5c0.3-0.5,0.8-1,1.3-1.3c0.6-0.3,1.2-0.4,1.9-0.4
			C199.8,95,200.7,95.4,201.3,96z"/>
		<path class="st2" d="M214.1,91v14.1h-2.5v-1.6c-0.3,0.5-0.7,1-1.3,1.3c-0.6,0.3-1.2,0.5-1.9,0.5c-0.8,0-1.6-0.2-2.3-0.6
			c-0.7-0.4-1.2-1-1.5-1.8c-0.4-0.8-0.6-1.7-0.6-2.7c0-1,0.2-1.9,0.6-2.7c0.4-0.8,0.9-1.3,1.5-1.8c0.7-0.4,1.4-0.6,2.3-0.6
			c0.7,0,1.3,0.1,1.9,0.4c0.5,0.3,1,0.7,1.3,1.2V91H214.1z M211,102.5c0.4-0.5,0.6-1.3,0.6-2.3c0-1-0.2-1.8-0.6-2.3
			c-0.4-0.5-1-0.8-1.8-0.8c-0.8,0-1.4,0.3-1.9,0.8c-0.4,0.5-0.7,1.3-0.7,2.3c0,1,0.2,1.8,0.7,2.4c0.4,0.6,1.1,0.8,1.8,0.8
			C209.9,103.3,210.6,103,211,102.5z"/>
		<path class="st2" d="M225.3,100.6h-6.7c0.1,0.9,0.4,1.6,0.8,2c0.5,0.4,1.1,0.7,2,0.7c1.1,0,2.1-0.3,3-1l0.7,1.7
			c-0.5,0.4-1,0.7-1.7,0.9s-1.4,0.3-2.1,0.3c-1.6,0-2.9-0.5-3.8-1.4c-0.9-0.9-1.4-2.1-1.4-3.7c0-1,0.2-1.9,0.6-2.7
			c0.4-0.8,1-1.4,1.7-1.8s1.5-0.6,2.5-0.6c1.3,0,2.4,0.4,3.2,1.3c0.8,0.9,1.2,2.1,1.2,3.6V100.6z M219.4,97.4
			c-0.4,0.4-0.7,1-0.8,1.8h4.5c0-0.8-0.2-1.4-0.6-1.8s-0.9-0.6-1.6-0.6C220.3,96.8,219.8,97,219.4,97.4z"/>
		<path class="st2" d="M240,96c0.7,0.7,1,1.7,1,3.1v5.9h-2.4v-1.5c-0.2,0.5-0.6,0.9-1.1,1.2c-0.5,0.3-1,0.4-1.7,0.4
			c-0.7,0-1.2-0.1-1.8-0.4c-0.5-0.3-1-0.6-1.3-1.1s-0.5-1-0.5-1.6c0-0.7,0.2-1.3,0.6-1.7c0.4-0.4,1-0.7,1.8-0.9
			c0.8-0.2,2-0.3,3.4-0.3h0.5v-0.5c0-0.7-0.1-1.1-0.4-1.4s-0.8-0.4-1.4-0.4c-0.5,0-1.1,0.1-1.6,0.3c-0.6,0.2-1.1,0.4-1.7,0.8
			l-0.7-1.7c0.5-0.3,1.2-0.6,2-0.9s1.5-0.3,2.2-0.3C238.3,95,239.3,95.4,240,96z M236.2,94l-2.9-4.1h2.5l2,4.1H236.2z M238,102.8
			c0.4-0.4,0.6-1,0.6-1.7v-0.4h-0.4c-0.9,0-1.6,0-2.1,0.1s-0.8,0.2-1.1,0.4c-0.2,0.2-0.3,0.5-0.3,0.8c0,0.4,0.1,0.8,0.4,1
			c0.3,0.3,0.7,0.4,1.1,0.4C237,103.4,237.6,103.2,238,102.8z"/>
		<path class="st2" d="M250.7,104.6c-0.8-0.4-1.3-1-1.7-1.8c-0.4-0.8-0.6-1.6-0.6-2.7s0.2-1.9,0.6-2.7c0.4-0.8,1-1.4,1.8-1.8
			c0.8-0.4,1.7-0.6,2.7-0.6c0.7,0,1.4,0.1,2,0.3c0.7,0.2,1.2,0.5,1.6,0.9l-0.7,1.8c-0.4-0.3-0.8-0.6-1.3-0.8s-0.9-0.3-1.4-0.3
			c-0.9,0-1.5,0.3-2,0.8c-0.5,0.5-0.7,1.3-0.7,2.3c0,1,0.2,1.8,0.7,2.3c0.5,0.5,1.2,0.8,2,0.8c0.5,0,0.9-0.1,1.4-0.3
			c0.5-0.2,0.9-0.4,1.3-0.8l0.7,1.7c-0.4,0.4-1,0.7-1.6,0.9c-0.7,0.2-1.4,0.3-2.1,0.3C252.4,105.2,251.5,105,250.7,104.6z"/>
		<path class="st2" d="M267,96c0.6,0.7,0.9,1.7,0.9,3v6h-2.5v-5.9c0-0.8-0.1-1.3-0.4-1.7c-0.3-0.3-0.7-0.5-1.3-0.5
			c-0.7,0-1.3,0.2-1.7,0.7c-0.4,0.5-0.7,1.1-0.7,1.8v5.5h-2.5V91h2.5v5.7c0.3-0.5,0.8-0.9,1.3-1.2c0.6-0.3,1.2-0.4,1.9-0.4
			C265.6,95,266.4,95.4,267,96z"/>
		<path class="st2" d="M277.7,96c0.7,0.7,1,1.7,1,3.1v5.9h-2.4v-1.5c-0.2,0.5-0.6,0.9-1.1,1.2c-0.5,0.3-1,0.4-1.7,0.4
			c-0.7,0-1.2-0.1-1.8-0.4c-0.5-0.3-1-0.6-1.3-1.1s-0.5-1-0.5-1.6c0-0.7,0.2-1.3,0.6-1.7c0.4-0.4,1-0.7,1.8-0.9
			c0.8-0.2,2-0.3,3.4-0.3h0.5v-0.5c0-0.7-0.1-1.1-0.4-1.4s-0.8-0.4-1.4-0.4c-0.5,0-1.1,0.1-1.6,0.3c-0.6,0.2-1.1,0.4-1.7,0.8
			l-0.7-1.7c0.5-0.3,1.2-0.6,2-0.9s1.5-0.3,2.2-0.3C276,95,277,95.4,277.7,96z M275.7,102.8c0.4-0.4,0.6-1,0.6-1.7v-0.4h-0.4
			c-0.9,0-1.6,0-2.1,0.1s-0.8,0.2-1.1,0.4c-0.2,0.2-0.3,0.5-0.3,0.8c0,0.4,0.1,0.8,0.4,1c0.3,0.3,0.7,0.4,1.1,0.4
			C274.7,103.4,275.2,103.2,275.7,102.8z"/>
		<path class="st2" d="M290.7,95.3v13.4h-2.5v-5.1c-0.3,0.5-0.7,1-1.3,1.3c-0.6,0.3-1.2,0.5-1.9,0.5c-0.9,0-1.6-0.2-2.3-0.6
			s-1.2-1-1.5-1.8c-0.4-0.8-0.6-1.6-0.6-2.7s0.2-1.9,0.6-2.7c0.4-0.8,0.9-1.4,1.5-1.8c0.7-0.4,1.4-0.6,2.3-0.6
			c0.7,0,1.3,0.1,1.9,0.4c0.6,0.3,1,0.7,1.3,1.3v-1.5H290.7z M287.5,102.5c0.4-0.5,0.6-1.3,0.6-2.3c0-1-0.2-1.8-0.6-2.3
			c-0.4-0.5-1-0.8-1.9-0.8c-0.8,0-1.4,0.3-1.8,0.8c-0.4,0.6-0.7,1.3-0.7,2.4c0,1,0.2,1.8,0.7,2.3c0.4,0.5,1.1,0.8,1.9,0.8
			C286.5,103.3,287.1,103,287.5,102.5z"/>
		<path class="st2" d="M302.2,95.3v9.8h-2.4v-1.5c-0.3,0.5-0.7,0.9-1.2,1.2c-0.5,0.3-1.1,0.4-1.8,0.4c-2.4,0-3.6-1.3-3.6-4v-5.9h2.5
			v5.9c0,0.7,0.1,1.2,0.4,1.5c0.3,0.3,0.7,0.5,1.3,0.5c0.7,0,1.3-0.2,1.7-0.7s0.6-1.1,0.6-1.8v-5.4H302.2z"/>
		<path class="st2" d="M313.4,100.6h-6.7c0.1,0.9,0.4,1.6,0.8,2c0.5,0.4,1.1,0.7,2,0.7c1.1,0,2.1-0.3,3-1l0.7,1.7
			c-0.5,0.4-1,0.7-1.7,0.9c-0.7,0.2-1.4,0.3-2.1,0.3c-1.6,0-2.9-0.5-3.8-1.4c-0.9-0.9-1.4-2.1-1.4-3.7c0-1,0.2-1.9,0.6-2.7
			c0.4-0.8,1-1.4,1.7-1.8s1.6-0.6,2.5-0.6c1.3,0,2.4,0.4,3.2,1.3c0.8,0.9,1.2,2.1,1.2,3.6V100.6z M307.5,97.4
			c-0.4,0.4-0.7,1-0.8,1.8h4.5c0-0.8-0.2-1.4-0.6-1.8c-0.4-0.4-0.9-0.6-1.6-0.6S307.9,97,307.5,97.4z"/>
		<path class="st2" d="M328.7,95.7c0.7,0.4,1.2,1,1.5,1.8c0.4,0.8,0.5,1.7,0.5,2.7s-0.2,1.9-0.5,2.7c-0.4,0.8-0.9,1.3-1.5,1.8
			c-0.7,0.4-1.4,0.6-2.3,0.6c-0.7,0-1.3-0.1-1.9-0.4c-0.5-0.3-1-0.7-1.3-1.2v5.1h-2.5V95.3h2.5v1.5c0.3-0.5,0.7-1,1.3-1.3
			c0.6-0.3,1.2-0.4,1.9-0.4C327.3,95,328.1,95.3,328.7,95.7z M327.7,102.5c0.4-0.5,0.7-1.3,0.7-2.3c0-1-0.2-1.8-0.7-2.4
			c-0.4-0.6-1.1-0.8-1.8-0.8c-0.8,0-1.4,0.3-1.8,0.8s-0.7,1.3-0.7,2.3c0,1,0.2,1.8,0.7,2.3s1,0.8,1.8,0.8
			C326.6,103.3,327.2,103,327.7,102.5z"/>
		<path class="st2" d="M340.1,96c0.7,0.7,1,1.7,1,3.1v5.9h-2.4v-1.5c-0.2,0.5-0.6,0.9-1.1,1.2c-0.5,0.3-1,0.4-1.7,0.4
			c-0.7,0-1.2-0.1-1.8-0.4c-0.5-0.3-1-0.6-1.3-1.1s-0.5-1-0.5-1.6c0-0.7,0.2-1.3,0.6-1.7c0.4-0.4,1-0.7,1.8-0.9
			c0.8-0.2,2-0.3,3.4-0.3h0.5v-0.5c0-0.7-0.1-1.1-0.4-1.4s-0.8-0.4-1.4-0.4c-0.5,0-1.1,0.1-1.6,0.3c-0.6,0.2-1.1,0.4-1.7,0.8
			l-0.7-1.7c0.5-0.3,1.2-0.6,2-0.9s1.5-0.3,2.2-0.3C338.4,95,339.5,95.4,340.1,96z M338.1,102.8c0.4-0.4,0.6-1,0.6-1.7v-0.4h-0.4
			c-0.9,0-1.6,0-2.1,0.1s-0.8,0.2-1.1,0.4c-0.2,0.2-0.3,0.5-0.3,0.8c0,0.4,0.1,0.8,0.4,1c0.3,0.3,0.7,0.4,1.1,0.4
			C337.2,103.4,337.7,103.2,338.1,102.8z"/>
		<path class="st2" d="M344.9,104.9c-0.7-0.2-1.3-0.5-1.8-0.9l0.7-1.7c1,0.8,2.2,1.1,3.6,1.1c0.6,0,1-0.1,1.3-0.3s0.5-0.5,0.5-0.8
			c0-0.3-0.1-0.5-0.3-0.7c-0.2-0.2-0.6-0.3-1.1-0.4l-1.6-0.4c-0.9-0.2-1.6-0.5-2-1c-0.4-0.5-0.7-1-0.7-1.8c0-0.6,0.2-1.1,0.5-1.6
			c0.3-0.5,0.8-0.8,1.4-1.1c0.6-0.3,1.3-0.4,2.1-0.4c0.7,0,1.4,0.1,2,0.3c0.6,0.2,1.2,0.5,1.7,0.9l-0.7,1.7c-1-0.7-2-1.1-3-1.1
			c-0.5,0-1,0.1-1.3,0.3c-0.3,0.2-0.5,0.5-0.5,0.8c0,0.3,0.1,0.5,0.3,0.7c0.2,0.2,0.5,0.3,0.9,0.4l1.7,0.4c1,0.2,1.7,0.5,2.1,1
			s0.7,1.1,0.7,1.8c0,0.9-0.4,1.6-1.1,2.2s-1.7,0.8-3,0.8C346.4,105.2,345.6,105.1,344.9,104.9z"/>
	</g>
</g>
</svg>
