<?xml version="1.0" encoding="utf-8"?>
<!-- Generator: Adobe Illustrator 22.1.0, SVG Export Plug-In . SVG Version: 6.00 Build 0)  -->
<svg version="1.1" id="Calque_1" xmlns="http://www.w3.org/2000/svg" xmlns:xlink="http://www.w3.org/1999/xlink" x="0px" y="0px"
	 viewBox="0 0 511 511" style="enable-background:new 0 0 511 511;" xml:space="preserve">
<path d="M210.4,331.3c-2.9-2.9-7.7-2.9-10.6,0c-2.9,2.9-2.9,7.7,0,10.6l11.9,11.9c1.5,1.5,3.4,2.2,5.3,2.2c1.9,0,3.8-0.7,5.3-2.2
	c2.9-2.9,2.9-7.7,0-10.6L210.4,331.3z M147.3,351.9c-2.9-2.9-7.7-2.9-10.6,0c-2.9,2.9-2.9,7.7,0,10.6l13.3,13.3
	c1.5,1.5,3.4,2.2,5.3,2.2c1.9,0,3.8-0.7,5.3-2.2c2.9-2.9,2.9-7.7,0-10.6L147.3,351.9z M79,286l-14.8,14.8c-2.9,2.9-2.9,7.7,0,10.6
	c1.5,1.5,3.4,2.2,5.3,2.2c1.9,0,3.8-0.7,5.3-2.2l14.8-14.8c2.9-2.9,2.9-7.7,0-10.6C86.7,283.1,82,283.1,79,286z M40.8,234.5
	c-2.9-2.9-7.7-2.9-10.6,0c-2.9,2.9-2.9,7.7,0,10.6l7.5,7.5c1.5,1.5,3.4,2.2,5.3,2.2c1.9,0,3.8-0.7,5.3-2.2c2.9-2.9,2.9-7.7,0-10.6
	L40.8,234.5z M351.9,178.1c-2.9,2.9-2.9,7.7,0,10.6l9.6,9.6c1.5,1.5,3.4,2.2,5.3,2.2c1.9,0,3.8-0.7,5.3-2.2c2.9-2.9,2.9-7.7,0-10.6
	l-9.6-9.6C359.6,175.2,354.9,175.2,351.9,178.1z M469.4,201.3l-9.4,9.4c-2.9,2.9-2.9,7.7,0,10.6c1.5,1.5,3.4,2.2,5.3,2.2
	c1.9,0,3.8-0.7,5.3-2.2l9.4-9.4c2.9-2.9,2.9-7.7,0-10.6C477.1,198.4,472.4,198.4,469.4,201.3z M302.4,128l-14.3,14.3
	c-2.9,2.9-2.9,7.7,0,10.6c1.5,1.5,3.4,2.2,5.3,2.2c1.9,0,3.8-0.7,5.3-2.2l14.3-14.3c2.9-2.9,2.9-7.7,0-10.6
	C310.1,125,305.4,125,302.4,128z M499.6,129.6c-7.2-15.5-22.9-25.5-40-25.5c-9.9,0-19,3.3-26.4,8.8l-0.8-0.8
	c-2.9-2.9-7.7-2.9-10.6,0c-2.9,2.9-2.9,7.7,0,10.6l1.1,1.1c-4.7,7-7.4,15.4-7.4,24.5v27.7c0,4-3.3,7.3-7.3,7.3h-10.7
	c-1.9-14.8-4.4-29.5-7.4-44.2c-1-4.9-2.5-9.8-4.5-14.4c-1.6-3.8-6-5.6-9.8-3.9c-3.8,1.6-5.6,6-3.9,9.8c1.6,3.7,2.8,7.6,3.6,11.5
	c3.3,16.3,6,32.8,8,49.2c0,0.2,0,0.4,0.1,0.6c2.5,21,3.9,42,4.2,63.1c0,0.1,0,0.2,0,0.4c0,0.2,0,0.4,0,0.6
	c0.3,22.4-0.7,44.8-2.9,67.1l-13.6,13.6c-2.9,2.9-2.9,7.7,0,10.6c1.5,1.5,3.4,2.2,5.3,2.2c1.9,0,3.8-0.7,5.3-2.2l0.1-0.1
	c-0.1,0.9-0.2,1.8-0.4,2.7l-6.6,46h-38.6l7.2-50.3c11.4-79.6,9-159.9-7.1-238.6c-0.7-3.4-1.6-6.8-2.7-10.1c6.8,2,13.3,5.2,19.1,9.5
	c1.3,1,2.9,1.5,4.5,1.5c2.3,0,4.5-1,6-3c2.5-3.3,1.8-8-1.5-10.5c-10.6-7.9-23-12.8-36-14.4c-5.7-9.1-13.1-17-21.7-23.3l2.5-2.5
	c2.9-2.9,2.9-7.7,0-10.6c-2.9-2.9-7.7-2.9-10.6,0l-5.2,5.2c-10.8-5.1-22.7-8-35.2-8c-29.1,0-55.4,15.4-70.2,39.2
	c-31.2,3.6-57,26.6-64,57.4c-0.7,0.4-1.4,0.8-2,1.4c-2.8,2.8-2.9,7.3-0.3,10.2c-7.2,38.2-10.7,76.7-10.7,115.3h-5.5
	c-4,0-7.3-3.3-7.3-7.3v-27.6c0-24.3-19.8-44.2-44.2-44.2c-17.1,0-32.8,10-40,25.5c-14.1,30.4-15.2,65.7-2.9,96.8
	c8.8,22.1,29.8,36.4,53.6,36.4h51.5c0.3,2.6,0.7,5.3,1.1,7.9l6.3,43.9H87.1c-19.4,0-36.9,11.6-44.5,29.5
	c-4.3,10.1-3.2,21.6,2.8,30.7c6.1,9.1,16.2,14.6,27.2,14.6h43.3c4.1,0,7.5-3.3,7.5-7.5s-3.3-7.5-7.5-7.5H72.6
	c-6,0-11.3-2.9-14.7-7.9c-3.3-5-3.9-11-1.5-16.6c5.2-12.4,17.3-20.3,30.7-20.3h42.5h0h0h198h0h0h53.7h0h0h42.5
	c13.4,0,25.5,8,30.7,20.3c2.3,5.5,1.8,11.6-1.5,16.6c-3.3,5-8.7,7.9-14.7,7.9H150.5c-4.1,0-7.5,3.3-7.5,7.5s3.4,7.5,7.5,7.5h287.9
	c11,0,21.1-5.5,27.1-14.6c6-9.1,7.1-20.6,2.8-30.7c-7.6-17.9-25-29.5-44.5-29.5H390l6.3-43.9c1.1-7.3,2-14.7,2.8-22.1l3.4-3.4
	c2.9-2.9,2.9-7.7,0-10.6c-0.6-0.6-1.2-1-1.9-1.4c1.4-17.2,2.1-34.5,2.1-51.8h46.2c23.8,0,44.8-14.3,53.6-36.4
	C514.8,195.2,513.7,160,499.6,129.6z M62.1,329.1c-17.6,0-33.2-10.6-39.7-27c-10.8-27.3-9.9-58.3,2.5-85
	c4.8-10.2,15.2-16.9,26.5-16.9c16.1,0,29.2,13.1,29.2,29.2v27.7c0,12.3,10,22.3,22.3,22.3h5.7c0.4,16.6,1.5,33.1,3.3,49.7H62.1z
	 M136.1,395.8l-6.6-46c-0.7-4.7-1.3-9.3-1.8-14c0,0,0-0.1,0-0.1c-2.5-21.2-3.9-42.3-4.2-63.5c0-0.1,0-0.2,0-0.3c0-0.2,0-0.4,0-0.5
	c-0.5-36.6,2.4-73.1,8.5-109.3l6.7,6.7c1.5,1.5,3.4,2.2,5.3,2.2c1.9,0,3.8-0.7,5.3-2.2c2.9-2.9,2.9-7.7,0-10.6l-14-14
	c0.1-0.7,0.3-1.5,0.4-2.2c4.5-21.9,20.8-39.1,41.7-45.1c-1.1,3.3-2,6.6-2.7,10c-16.1,78.8-18.5,159-7.1,238.6l7.2,50.3H136.1z
	 M328.7,343.4l-7.5,52.4H189.8l-7.5-52.4c-11.2-77.9-8.8-156.4,6.9-233.5c6.4-31.3,34.2-54,66.2-54c8.3,0,16.4,1.6,23.8,4.4
	l-1.6,1.6c-2.9,2.9-2.9,7.7,0,10.6c1.5,1.5,3.4,2.2,5.3,2.2s3.8-0.7,5.3-2.2l4.9-4.9c14.3,9.7,24.8,24.7,28.4,42.4
	C337.5,187,339.8,265.6,328.7,343.4z M488.5,220.9c-6.5,16.4-22.1,27-39.7,27h-46.4c-0.4-16.6-1.5-33.1-3.3-49.7h8.9
	c12.3,0,22.3-10,22.3-22.3v-27.6c0-4.9,1.2-9.5,3.4-13.6c1.4,1.3,3.3,2,5.1,2c1.9,0,3.8-0.7,5.3-2.2c2.9-2.9,2.9-7.7,0-10.6
	l-0.2-0.2c4.5-2.9,9.9-4.6,15.7-4.6c11.3,0,21.7,6.6,26.5,16.9C498.4,162.6,499.3,193.5,488.5,220.9z M235.3,115.7l-19-19
	c-2.9-2.9-7.7-2.9-10.6,0s-2.9,7.7,0,10.6l19,19c1.5,1.5,3.4,2.2,5.3,2.2c1.9,0,3.8-0.7,5.3-2.2
	C238.3,123.4,238.3,118.7,235.3,115.7z M297.3,290.6L282,305.9c-2.9,2.9-2.9,7.7,0,10.6c1.5,1.5,3.4,2.2,5.3,2.2
	c1.9,0,3.8-0.7,5.3-2.2l15.4-15.4c2.9-2.9,2.9-7.7,0-10.6C305,287.7,300.3,287.7,297.3,290.6z"/>
</svg>
