<?xml version="1.0" encoding="utf-8"?>
<!-- Generator: Adobe Illustrator 22.1.0, SVG Export Plug-In . SVG Version: 6.00 Build 0)  -->
<svg version="1.1" id="Calque_1" xmlns="http://www.w3.org/2000/svg" xmlns:xlink="http://www.w3.org/1999/xlink" x="0px" y="0px"
	 viewBox="0 0 511 511" style="enable-background:new 0 0 511 511;" xml:space="preserve">
<style type="text/css">
	.st0{fill:#AEDE7B;}
	.st1{fill:#B4DE87;}
	.st2{fill:#92D18A;}
	.st3{fill:#8EC15D;}
	.st4{fill:#DEB48C;}
	.st5{fill:#F8EED1;}
	.st6{fill:#D19169;}
</style>
<path class="st0" d="M427.9,148.6v28.5c0,8.4-6.8,15.3-15.3,15.3h-52.4v66.6h94.4c21.2,0,40.2-12.9,48-32.6
	c12-30.3,11-64.1-2.8-93.6c-6.2-13.3-19.6-21.8-34.2-21.8C444.8,110.8,427.9,127.7,427.9,148.6z"/>
<path class="st1" d="M83.1,232.2v28.5c0,8.4,6.8,15.3,15.3,15.3h52.4v66.6H56.3c-21.2,0-40.2-12.9-48-32.6
	c-12-30.3-11-64.1,2.8-93.6c6.2-13.3,19.6-21.8,34.2-21.8C66.2,194.5,83.1,211.4,83.1,232.2z"/>
<path class="st2" d="M95.3,275.7c0.3,22.3,1.7,44.6,4.3,66.9h51.1V276H98.3C97.3,276,96.3,275.9,95.3,275.7z"/>
<path class="st3" d="M192.1,85.6c-32.7,0-61,23-67.5,55.1c-14.6,71.3-16.8,144.6-6.4,216.7l7.7,54h132.4l7.7-54
	c10.3-72.1,8.1-145.4-6.4-216.7C253,108.6,224.8,85.6,192.1,85.6z"/>
<path class="st2" d="M411.3,192.3h-51.1v66.6h55.4C415.4,236.7,413.9,214.4,411.3,192.3z"/>
<path class="st3" d="M318.9,85.6c32.7,0,61,23,67.5,55.1c14.6,71.3,16.8,144.6,6.4,216.7l-7.7,54H252.7l-7.7-54
	c-10.3-72.1-8.1-145.4,6.4-216.7C258,108.6,286.2,85.6,318.9,85.6z"/>
<path class="st1" d="M255.5,45.8c-36.7,0-68.4,25.8-75.8,61.8c-16.4,80-18.8,162.3-7.2,243.1l8.7,60.6h148.6l8.7-60.6
	c11.6-80.9,9.1-163.1-7.2-243.1C323.9,71.6,292.2,45.8,255.5,45.8z"/>
<path class="st2" d="M216.5,56.3c-18.5,10.8-32.2,29.1-36.8,51.3c-16.4,80-18.8,162.3-7.2,243.1l8.7,60.6h87.1
	C187,322.6,202.7,140.6,216.5,56.3z"/>
<path class="st4" d="M443.9,472.9H67.1c-18.5,0-31-18.9-23.8-35.9c6.6-15.5,21.8-25.6,38.7-25.6H429c16.9,0,32.1,10.1,38.7,25.6
	C474.9,454,462.4,472.9,443.9,472.9z"/>
<g>
	<path class="st5" d="M444.3,136.4c-1.9,0-3.8-0.7-5.3-2.2l-12.1-12.1c-2.9-2.9-2.9-7.7,0-10.6c2.9-2.9,7.7-2.9,10.6,0l12.1,12.1
		c2.9,2.9,2.9,7.7,0,10.6C448.2,135.7,446.2,136.4,444.3,136.4z"/>
	<path class="st5" d="M471.6,225.9c-1.9,0-3.8-0.7-5.3-2.2c-2.9-2.9-2.9-7.7,0-10.6l9.7-9.7c2.9-2.9,7.7-2.9,10.6,0
		c2.9,2.9,2.9,7.7,0,10.6l-9.7,9.7C475.4,225.2,473.5,225.9,471.6,225.9z"/>
	<path class="st5" d="M294.5,155.4c-1.9,0-3.8-0.7-5.3-2.2c-2.9-2.9-2.9-7.7,0-10.6l14.8-14.8c2.9-2.9,7.7-2.9,10.6,0
		c2.9,2.9,2.9,7.7,0,10.6l-14.8,14.8C298.4,154.7,296.4,155.4,294.5,155.4z"/>
	<path class="st5" d="M229.3,128.1c-1.9,0-3.8-0.7-5.3-2.2l-19.6-19.6c-2.9-2.9-2.9-7.7,0-10.6c2.9-2.9,7.7-2.9,10.6,0l19.6,19.6
		c2.9,2.9,2.9,7.7,0,10.6C233.1,127.3,231.2,128.1,229.3,128.1z"/>
	<path class="st5" d="M283.9,72.5c-1.9,0-3.8-0.7-5.3-2.2c-2.9-2.9-2.9-7.7,0-10.6l18.6-18.6c2.9-2.9,7.7-2.9,10.6,0
		c2.9,2.9,2.9,7.7,0,10.6l-18.6,18.6C287.7,71.8,285.8,72.5,283.9,72.5z"/>
	<path class="st5" d="M215.9,362.3c-1.9,0-3.8-0.7-5.3-2.2l-12.2-12.2c-2.9-2.9-2.9-7.7,0-10.6c2.9-2.9,7.7-2.9,10.6,0l12.2,12.2
		c2.9,2.9,2.9,7.7,0,10.6C219.7,361.5,217.8,362.3,215.9,362.3z"/>
	<path class="st5" d="M140.6,171.8c-1.9,0-3.8-0.7-5.3-2.2l-19.9-19.9c-2.9-2.9-2.9-7.7,0-10.6s7.7-2.9,10.6,0l19.9,19.9
		c2.9,2.9,2.9,7.7,0,10.6C144.4,171.1,142.5,171.8,140.6,171.8z"/>
	<path class="st5" d="M380.1,355.6c-1.9,0-3.8-0.7-5.3-2.2c-2.9-2.9-2.9-7.7,0-10.6l21.3-21.3c2.9-2.9,7.7-2.9,10.6,0
		c2.9,2.9,2.9,7.7,0,10.6l-21.3,21.3C383.9,354.8,382,355.6,380.1,355.6z"/>
	<path class="st5" d="M288.2,324c-1.9,0-3.8-0.7-5.3-2.2c-2.9-2.9-2.9-7.7,0-10.6l15.8-15.8c2.9-2.9,7.7-2.9,10.6,0
		c2.9,2.9,2.9,7.7,0,10.6l-15.8,15.8C292.1,323.2,290.1,324,288.2,324z"/>
	<path class="st5" d="M370.1,202.2c-1.9,0-3.8-0.7-5.3-2.2l-9.9-9.9c-2.9-2.9-2.9-7.7,0-10.6s7.7-2.9,10.6,0l9.9,9.9
		c2.9,2.9,2.9,7.7,0,10.6C374,201.5,372,202.2,370.1,202.2z"/>
	<path class="st5" d="M36.7,258.1c-1.9,0-3.8-0.7-5.3-2.2l-7.7-7.7c-2.9-2.9-2.9-7.7,0-10.6c2.9-2.9,7.7-2.9,10.6,0l7.7,7.7
		c2.9,2.9,2.9,7.7,0,10.6C40.5,257.4,38.6,258.1,36.7,258.1z"/>
	<path class="st5" d="M63.9,318.7c-1.9,0-3.8-0.7-5.3-2.2c-2.9-2.9-2.9-7.7,0-10.6l15.3-15.3c2.9-2.9,7.7-2.9,10.6,0
		c2.9,2.9,2.9,7.7,0,10.6l-15.3,15.3C67.8,318,65.8,318.7,63.9,318.7z"/>
	<path class="st5" d="M152.3,384.9c-1.9,0-3.8-0.7-5.3-2.2l-13.6-13.6c-2.9-2.9-2.9-7.7,0-10.6c2.9-2.9,7.7-2.9,10.6,0l13.6,13.6
		c2.9,2.9,2.9,7.7,0,10.6C156.1,384.2,154.2,384.9,152.3,384.9z"/>
</g>
<path class="st6" d="M227.6,411.3H82c-16.9,0-32.1,10.1-38.7,25.6c-7.2,17,5.3,35.9,23.8,35.9h185.8
	C211.7,457.7,208.4,423.2,227.6,411.3z"/>
<path class="st6" d="M406.8,437c0,4.2-3.4,7.5-7.5,7.5c-4.2,0-7.5-3.4-7.5-7.5c0-4.2,3.4-7.5,7.5-7.5
	C403.4,429.5,406.8,432.9,406.8,437z"/>
<path class="st6" d="M309.6,452.1c0,4.2-3.4,7.5-7.5,7.5c-4.2,0-7.5-3.4-7.5-7.5c0-4.2,3.4-7.5,7.5-7.5
	C306.2,444.6,309.6,447.9,309.6,452.1z"/>
<path class="st4" d="M98.1,446.9c0,4.2-3.4,7.5-7.5,7.5c-4.2,0-7.5-3.4-7.5-7.5c0-4.2,3.4-7.5,7.5-7.5
	C94.8,439.4,98.1,442.7,98.1,446.9z"/>
<path class="st4" d="M180.4,433.3c0,4.2-3.4,7.5-7.5,7.5c-4.2,0-7.5-3.4-7.5-7.5c0-4.2,3.4-7.5,7.5-7.5
	C177,425.8,180.4,429.2,180.4,433.3z"/>
</svg>
