<svg xmlns="http://www.w3.org/2000/svg" viewBox="0 0 1270.628 4083.078">
  <defs>
    <style>
      .cls-1 {
        fill: none;
        stroke: #78c0e0;
        stroke-width: 3px;
        stroke-dasharray: 15 8;
        opacity: 0.559;
      }
    </style>
  </defs>
  <path id="Tracé_17" data-name="Tracé 17" class="cls-1" d="M-31.965,403.386C-96.4,536.315-109.112,858.967,18,908.974s926.979,92.895,1004.71,165.951,111.177,221.7,0,331.249S778.633,1520.643,578,1513.139s-206.809-97.273-177.637-128.606,141.893-42.321,142.709,26.5-209.927,100.3-305.089,126.013c-27.3-.031-186.71-29.3-219.984,111.288s18.353,231.838,320,424.649c177.97,113.758,542.383,95.218,710.238,163.083,117.341,47.442-125.166,89.629-171.117,155.393-43.373,62.074,282.257,116.24,143.966,214.741-105.281,7.742-222.837-73.142-208.454,8.069s272.032,128.367,222.459,244.087c-40.677,62.212-248.3,87.542-248.3,87.542s-579.76-7.6-732.281,82.566c-169.709,100.323,3.02,261.3,161.425,213.468,129.432-101.659,184.188-144.669,240.089-179.341S756.454,3065.742,810,3177.466c118.16,246.544,1.8,192.226,60,353.992-56.426,13.027-934.966-409.406-912.966-90.151,10.318,149.729,1019.518-46.522,1023.612,255.947s-579.422-7.172-852.382,63.38-354.248,151.124-270.105,282.207,210.047,146.475,183.678,42.665c-21.2-88.58-95.045-38.531-130.737,15.464-37.953,57.415-24.483,110.9-24.46,111.963C-122.7,4310.281-73.8,4479.8,8.757,4484.074c148.4,7.689,95.124-170.529,226.252-118.34,2.542,1.012,80.317,93.291,145.988,93.057" transform="translate(175.02 -402.732)"/>
</svg>
