<?xml version="1.0" encoding="utf-8"?>
<!-- Generator: Adobe Illustrator 22.1.0, SVG Export Plug-In . SVG Version: 6.00 Build 0)  -->
<svg version="1.1" xmlns="http://www.w3.org/2000/svg" xmlns:xlink="http://www.w3.org/1999/xlink" x="0px" y="0px"
	 viewBox="0 0 380 143.4" style="enable-background:new 0 0 380 143.4;" xml:space="preserve">
<style type="text/css">
	.st0{display:none;}
	.st1{display:inline;fill:#CB593E;}
	.st2{display:inline;fill:#CE6249;}
	.st3{display:inline;fill:#D06B53;}
	.st4{display:inline;fill:#D3745E;}
	.st5{display:inline;fill:#D67E69;}
	.st6{display:inline;fill:#D98774;}
	.st7{display:inline;fill:#DC907E;}
	.st8{display:inline;fill:#DF9989;}
	.st9{display:inline;fill:#E2A394;}
	.st10{fill:url(#SVGID_1_);}
	.st11{fill:#F6E3DF;}
	.st12{fill:#E8B5A9;}
	.st13{fill:#EEC8BF;}
	.st14{fill:#BCB48B;}
	.st15{fill:#6475B0;}
	.st16{fill:#92A18B;}
	.st17{fill:#CB593E;}
	.st18{fill:#DC907E;}
	.st19{fill:#D67E69;}
	.st20{fill:#D36D50;}
	.st21{fill:#C54629;}
	.st22{fill:#E2A394;}
	.st23{fill:#D06B53;}
	.st24{fill:#376FAA;}
	.st25{fill:#7EA879;}
	.st26{fill:#ECE0D6;}
	.st27{fill:#CFB098;}
	.st28{fill:#E5D4C7;}
	.st29{fill:#EBE4DF;}
	.st30{fill:#A98C76;}
	.st31{fill:#B49A87;}
	.st32{fill:#376384;}
	.st33{display:none;fill:#374F84;}
	.st34{display:none;fill:#376384;}
	.st35{display:none;fill:#373184;}
	.st36{fill:#374F84;}
	.st37{fill:#223A8F;}
	.st38{fill:#3A9FCC;}
	.st39{fill:#3BD9D9;}
	.st40{fill:#1A428A;}
	.st41{fill:#A3B3D0;}
	.st42{fill:#768EB9;}
	.st43{fill:#5F7BAD;}
	.st44{fill:#D1D9E8;}
	.st45{fill:#4868A1;}
	.st46{fill:#315595;}
	.st47{fill:url(#SVGID_2_);}
	.st48{fill:#FFEBA2;}
	.st49{fill:#FFD623;}
	.st50{fill:#FFB023;}
	.st51{fill:#F0902A;}
	.st52{fill:#B64C23;}
	.st53{opacity:0.23;fill:#408338;}
	.st54{fill:#815C34;}
	.st55{fill:#EDDBA9;}
	.st56{fill:#B86A34;}
	.st57{fill:#FFED23;}
	.st58{fill:#FF8D12;}
	.st59{fill:#7CA138;}
	.st60{fill:#70812C;}
	.st61{fill:#EF5350;}
	.st62{fill:#E53935;}
	.st63{fill:#FFA000;}
	.st64{fill:#F57C00;}
	.st65{fill:#FFB74D;}
	.st66{fill:#FF5252;}
	.st67{fill:#FFEE58;}
	.st68{fill:#D32F2F;}
	.st69{fill:#FFE0B2;}
	.st70{fill:url(#SVGID_3_);}
	.st71{fill:url(#SVGID_4_);}
</style>
<g id="Calque_2">
	<g id="Calque_4">
	</g>
	<g>
		<rect x="0.2" class="st37" width="380" height="142.8"/>
		<g>
			<g>
				<path class="st48" d="M370.4,113.5c0,2.4-65.1,4.3-145.5,4.3c-80.3,0-145.5-1.9-145.5-4.3c0-2.4,65.1-4.3,145.5-4.3
					C305.3,109.2,370.4,111.1,370.4,113.5z"/>
				<g>
					<g>
						<polygon class="st49" points="279.5,29.8 179,29.8 179,113 221.9,113 279.5,113 337.2,113 						"/>
						<polygon class="st50" points="121.4,113 179,29.8 236.7,113 						"/>
						<polygon class="st51" points="157.2,113 179,29.8 200.9,113 						"/>
						<polygon class="st52" points="167.3,113 179,29.8 190.8,113 						"/>
					</g>
					<path class="st48" d="M200.2,29.8C217.5,53.1,254,87.7,318,85.3l-38.5-55.5L200.2,29.8z"/>
				</g>
				<g>
					
						<ellipse transform="matrix(0.1022 -0.9948 0.9948 0.1022 -30.5435 144.9582)" class="st48" cx="65" cy="89.4" rx="36.8" ry="36.8"/>
					
						<ellipse transform="matrix(0.5013 -0.8653 0.8653 0.5013 -44.9213 100.8629)" class="st48" cx="65" cy="89.4" rx="27.5" ry="27.5"/>
					<g>
						<path class="st53" d="M121.3,113.6c0,1-25,1.9-55.9,1.9c-30.8,0-55.9-0.8-55.9-1.9s25-1.9,55.9-1.9
							C96.3,111.7,121.3,112.6,121.3,113.6z"/>
						<g>
							<g>
								<g>
									<path class="st54" d="M73.6,107.7c-3.1,0-5.6,2.5-5.6,5.6l5.6,0h5.6h28.4v-5.6L73.6,107.7z"/>
									<path class="st55" d="M101.6,113.3c0-3.1,2.5-5.6,5.6-5.6c3.1,0,5.6,2.5,5.6,5.6H101.6z"/>
									<path class="st56" d="M100.6,109.7H82.5c-0.2,0-0.4-0.2-0.4-0.4l0,0c0-0.2,0.2-0.4,0.4-0.4h18.2c0.2,0,0.4,0.2,0.4,0.4l0,0
										C101.1,109.5,100.9,109.7,100.6,109.7z"/>
									<path class="st56" d="M90.2,111.7H72.1c-0.2,0-0.4-0.2-0.4-0.4l0,0c0-0.2,0.2-0.4,0.4-0.4h18.2c0.2,0,0.4,0.2,0.4,0.4l0,0
										C90.7,111.5,90.5,111.7,90.2,111.7z"/>
								</g>
								<g>
									<path class="st54" d="M59.8,107.7c-3.1,0-5.6,2.5-5.6,5.6h5.6h5.6l28.4,0v-5.6H59.8z"/>
									<path class="st55" d="M87.8,113.3c0-3.1,2.5-5.6,5.6-5.6c3.1,0,5.6,2.5,5.6,5.6H87.8z"/>
									<path class="st56" d="M86.8,109.7l-18.2,0c-0.2,0-0.4-0.2-0.4-0.4l0,0c0-0.2,0.2-0.4,0.4-0.4h18.2c0.2,0,0.4,0.2,0.4,0.4
										l0,0C87.2,109.5,87,109.7,86.8,109.7z"/>
									<path class="st56" d="M76.4,111.7H58.2c-0.2,0-0.4-0.2-0.4-0.4l0,0c0-0.2,0.2-0.4,0.4-0.4l18.2,0c0.2,0,0.4,0.2,0.4,0.4
										l0,0C76.8,111.5,76.6,111.7,76.4,111.7z"/>
								</g>
							</g>
							<g>
								<g>
									<path class="st54" d="M57.3,107.7c3.1,0,5.6,2.5,5.6,5.6h-5.6h-5.6H23.3v-5.6L57.3,107.7z"/>
									<path class="st55" d="M29.3,113.3c0-3.1-2.5-5.6-5.6-5.6s-5.6,2.5-5.6,5.6H29.3z"/>
									<path class="st56" d="M30.3,109.7h18.2c0.2,0,0.4-0.2,0.4-0.4l0,0c0-0.2-0.2-0.4-0.4-0.4l-18.2,0c-0.2,0-0.4,0.2-0.4,0.4
										l0,0C29.9,109.5,30.1,109.7,30.3,109.7z"/>
									<path class="st56" d="M40.7,111.7l18.2,0c0.2,0,0.4-0.2,0.4-0.4l0,0c0-0.2-0.2-0.4-0.4-0.4H40.7c-0.2,0-0.4,0.2-0.4,0.4
										l0,0C40.3,111.5,40.5,111.7,40.7,111.7z"/>
								</g>
								<g>
									<path class="st54" d="M71.2,107.7c3.1,0,5.6,2.5,5.6,5.6l-5.6,0h-5.6H37.2v-5.6L71.2,107.7z"/>
									<path class="st55" d="M43.2,113.3c0-3.1-2.5-5.6-5.6-5.6c-3.1,0-5.6,2.5-5.6,5.6H43.2z"/>
									<path class="st56" d="M44.2,109.7h18.2c0.2,0,0.4-0.2,0.4-0.4l0,0c0-0.2-0.2-0.4-0.4-0.4H44.2c-0.2,0-0.4,0.2-0.4,0.4l0,0
										C43.7,109.5,43.9,109.7,44.2,109.7z"/>
									<path class="st56" d="M54.6,111.7h18.2c0.2,0,0.4-0.2,0.4-0.4l0,0c0-0.2-0.2-0.4-0.4-0.4l-18.2,0c-0.2,0-0.4,0.2-0.4,0.4
										l0,0C54.1,111.5,54.3,111.7,54.6,111.7z"/>
								</g>
							</g>
						</g>
						<path class="st57" d="M64.5,111.6c8.2,0,15.2-1.6,17.5-3.9H69.7h-2h-9.2h-2H47C49.3,110,56.3,111.6,64.5,111.6z"/>
						<g>
							<g>
								<path class="st57" d="M64.2,107.8c0,0-13.1,2.5-14.9-9.9C47.4,85.6,62,84.1,59.5,72.5c0,0,3.3,3.2,2.4,7.6
									c-0.9,4.4,3.3,4.8,4.9,1.7c1.6-3-1-9.7-3.7-13.5c-2.7-3.8-2.3-7.2-2.3-7.2s2,5.3,4.9,6.2c2.9,0.9,10.7,7.7,10,14
									c-0.6,6.3,0.9,9.1,3.3,8.5c2.3-0.6,2.1-8.2,2.1-8.2s3.9,7.6,2.6,13.1C82.4,100.2,78.3,110.5,64.2,107.8z"/>
								<path class="st58" d="M63.7,107.1c0,0-6.3-0.2-7.3-6.8c-1-6.7,4.3-7.7,4.7-12.2c0,0,1.7,2.3,1,5.2c-0.7,2.8,0.7,3,2.7,3
									c2,0,5-4.7,4-9.2c0,0,4.8,4.2,4.3,10.3C72.6,103.6,68.6,107.5,63.7,107.1z"/>
							</g>
							<path class="st57" d="M78.4,72.6c0,0.8-0.6,1.4-1.4,1.4c-0.8,0-1.4-0.6-1.4-1.4c0-0.8,0.6-1.4,1.4-1.4
								C77.7,71.1,78.4,71.8,78.4,72.6z"/>
							<path class="st57" d="M48,87.5c0,0.8-0.6,1.4-1.4,1.4c-0.8,0-1.4-0.6-1.4-1.4s0.6-1.4,1.4-1.4C47.4,86,48,86.7,48,87.5z"/>
							<path class="st57" d="M86.4,80c0,0.5-0.4,0.9-0.9,0.9s-0.9-0.4-0.9-0.9s0.4-0.9,0.9-0.9S86.4,79.5,86.4,80z"/>
							<path class="st57" d="M66.1,62.2c-0.5,0-0.9-0.4-0.9-0.9c0-0.5,0.4-0.9,0.9-0.9c0.5,0,0.9,0.4,0.9,0.9
								C67,61.8,66.6,62.2,66.1,62.2z"/>
							<path class="st57" d="M73.2,58.8c0.1-0.2,0.3-0.4,0.6-0.3c0.2,0.1,0.4,0.3,0.3,0.6c-0.1,0.2-0.3,0.4-0.6,0.3
								C73.3,59.3,73.2,59,73.2,58.8z"/>
							<path class="st57" d="M51.2,79.8c0.1-0.2,0.3-0.4,0.6-0.3c0.2,0.1,0.4,0.3,0.3,0.6c-0.1,0.2-0.3,0.4-0.6,0.3
								C51.3,80.3,51.2,80,51.2,79.8z"/>
						</g>
					</g>
				</g>
			</g>
			<g>
				<path class="st59" d="M325.6,70.3l-37.2,0c-1.1,0-2.1-0.9-2.1-2.1v-4.9c0-1.1,0.9-2.1,2.1-2.1l37.2,0c1.1,0,2.1,0.9,2.1,2.1v4.9
					C327.7,69.4,326.7,70.3,325.6,70.3z"/>
				<path class="st60" d="M326.4,70.3l-38.8,0c-0.7,0-1.3-0.6-1.3-1.3v-0.8c0-0.7,0.6-1.3,1.3-1.3l38.8,0c0.7,0,1.3,0.6,1.3,1.3V69
					C327.7,69.7,327.1,70.3,326.4,70.3z"/>
				<g>
					<g>
						<g>
							<path class="st61" d="M331.5,103.1V89.8c0-0.4-0.2-0.7-0.6-0.9l-4.7-1.6c-0.6-0.2-1.2,0.2-1.2,0.9v18.1
								C330.9,106.3,331.5,103.1,331.5,103.1z"/>
							<path class="st62" d="M327.8,95.4h-0.2c-1,0-2,0.4-2.6,1.1v9.8c6,0,6.6-3.2,6.6-3.2v-3.9C331.5,97.1,329.8,95.4,327.8,95.4z"
								/>
						</g>
						<g>
							<path class="st61" d="M283.5,103.1V89.8c0-0.4,0.2-0.7,0.6-0.9l4.7-1.6c0.6-0.2,1.2,0.2,1.2,0.9v18.1
								C284.1,106.3,283.5,103.1,283.5,103.1z"/>
							<path class="st62" d="M287.3,95.4h0.2c1,0,2,0.4,2.6,1.1v9.8c-6,0-6.6-3.2-6.6-3.2v-3.9C283.5,97.1,285.2,95.4,287.3,95.4z"
								/>
						</g>
					</g>
					<g>
						<g>
							<path class="st63" d="M325.6,110.3l-2.3,0c-0.4,0-0.7-0.3-0.7-0.7V84.9c0-0.4,0.3-0.7,0.7-0.7h2.3c0.4,0,0.7,0.3,0.7,0.7
								v24.7C326.3,110,326,110.3,325.6,110.3z"/>
							<path class="st64" d="M325.8,110.3l-2.7,0c-0.3,0-0.5-0.2-0.5-0.5V98.6c0-0.3,0.2-0.5,0.5-0.5h2.7c0.3,0,0.5,0.2,0.5,0.5
								v11.2C326.3,110.1,326.1,110.3,325.8,110.3z"/>
						</g>
						<g>
							<path class="st63" d="M291.7,110.3h-2.3c-0.4,0-0.7-0.3-0.7-0.7V84.9c0-0.4,0.3-0.7,0.7-0.7h2.3c0.4,0,0.7,0.3,0.7,0.7v24.7
								C292.5,110,292.1,110.3,291.7,110.3z"/>
							<path class="st64" d="M292,110.3h-2.7c-0.3,0-0.5-0.2-0.5-0.5V98.6c0-0.3,0.2-0.5,0.5-0.5h2.7c0.3,0,0.5,0.2,0.5,0.5v11.2
								C292.5,110.1,292.3,110.3,292,110.3z"/>
						</g>
					</g>
					<path class="st65" d="M321.9,113.1l-28.7,0c-0.8,0-1.5-0.7-1.5-1.5V71c0-0.8,0.7-1.5,1.5-1.5h28.7c0.8,0,1.5,0.7,1.5,1.5v40.6
						C323.4,112.4,322.7,113.1,321.9,113.1z"/>
					<path class="st61" d="M322.8,114.3l-30.6,0c-0.9,0-1.6-0.7-1.6-1.6V72.3c0-0.9,0.7-1.6,1.6-1.6h30.6c0.9,0,1.6,0.7,1.6,1.6
						v40.5C324.4,113.6,323.7,114.3,322.8,114.3z"/>
					<path class="st62" d="M320.1,110.3H295c-0.7,0-1.3-0.6-1.3-1.3V75.9c0-0.7,0.6-1.3,1.3-1.3l25.1,0c0.7,0,1.3,0.6,1.3,1.3V109
						C321.3,109.7,320.8,110.3,320.1,110.3z"/>
					<path class="st66" d="M320.5,109.9h-26c-0.5,0-0.8-0.4-0.8-0.8V96.3c0-0.5,0.4-0.8,0.8-0.8l26,0c0.5,0,0.8,0.4,0.8,0.8v12.8
						C321.3,109.5,321,109.9,320.5,109.9z"/>
					<path class="st61" d="M316.8,108.3h-18.6c-0.3,0-0.6-0.3-0.6-0.6v-9.2c0-0.3,0.3-0.6,0.6-0.6h18.6c0.3,0,0.6,0.3,0.6,0.6v9.2
						C317.4,108,317.1,108.3,316.8,108.3z"/>
					<g>
						<path class="st65" d="M295.6,61.3v16.1c0,0.5,0.4,0.8,0.8,0.8h2.4c0.5,0,0.8-0.4,0.8-0.8V61.3H295.6z"/>
						<path class="st63" d="M295.6,61.3v16.1c0,0.5,0.4,0.8,0.8,0.8h2.4c0.5,0,0.8-0.4,0.8-0.8V61.3H295.6z"/>
						<path class="st65" d="M295.6,61.3v8.6c0,0.5,0.4,0.8,0.8,0.8h2.4c0.5,0,0.8-0.4,0.8-0.8v-8.6H295.6z"/>
						<path class="st63" d="M315.4,61.3v16.1c0,0.5,0.4,0.8,0.8,0.8h2.4c0.5,0,0.8-0.4,0.8-0.8V61.3H315.4z"/>
						<path class="st65" d="M315.4,61.3v8.6c0,0.5,0.4,0.8,0.8,0.8h2.4c0.5,0,0.8-0.4,0.8-0.8v-8.6H315.4z"/>
					</g>
					<rect x="305.5" y="70.3" class="st67" width="4" height="1.1"/>
					<rect x="305.5" y="70.3" class="st67" width="4" height="1.1"/>
					<path class="st68" d="M320.5,110.3h-26c-0.5,0-0.8-0.4-0.8-0.8V96.7c0-0.5,0.4-0.8,0.8-0.8h26c0.5,0,0.8,0.4,0.8,0.8v12.8
						C321.3,110,321,110.3,320.5,110.3z"/>
					<path class="st63" d="M300.8,97.9v2.2c0,0.5,0.4,0.9,0.9,0.9h11.6c0.5,0,0.9-0.4,0.9-0.9v-2.2H300.8z"/>
					<rect x="300.8" y="97.9" class="st67" width="13.5" height="0.4"/>
					<rect x="300" y="84.1" class="st63" width="15.1" height="0.9"/>
					<rect x="303.8" y="86.4" class="st69" width="7.4" height="2.8"/>
				</g>
			</g>
		</g>
	</g>
</g>
<g id="Calque_1">
</g>
</svg>
